/* XPM */
static char *f1512d76f4c7428ca8c836143e8b483f[] = {
/* columns rows colors chars-per-pixel */
"50 103 187 2 ",
"   c black",
".  c #010100",
"X  c #010101",
"o  c gray1",
"O  c #070707",
"+  c #090909",
"@  c gray4",
"#  c #0B0B0A",
"$  c #0B0B0B",
"%  c #0C0C0C",
"&  c gray5",
"*  c #0E0E0E",
"=  c gray6",
"-  c #101010",
";  c #111110",
":  c #111111",
">  c #121211",
",  c gray7",
"<  c #131312",
"1  c #131313",
"2  c gray8",
"3  c #151514",
"4  c #151515",
"5  c #161616",
"6  c gray9",
"7  c #181818",
"8  c #191919",
"9  c gray10",
"0  c #1B1B1B",
"q  c gray11",
"w  c #1D1D1D",
"e  c #1E1E1E",
"r  c gray12",
"t  c #202020",
"y  c #212120",
"u  c #222222",
"i  c gray15",
"p  c #272727",
"a  c #2F2F2F",
"s  c gray19",
"d  c #313131",
"f  c gray20",
"g  c #343434",
"h  c #353535",
"j  c gray21",
"k  c #373737",
"l  c gray22",
"z  c #3A3A3A",
"x  c gray23",
"c  c #3C3C3C",
"v  c #3E3E3E",
"b  c #3F3F3F",
"n  c gray25",
"m  c gray26",
"M  c #434343",
"N  c #444444",
"B  c gray27",
"V  c #464646",
"C  c gray28",
"Z  c #484848",
"A  c #494949",
"S  c gray29",
"D  c #4B4B4B",
"F  c #505050",
"G  c #515151",
"H  c #535353",
"J  c #555555",
"K  c #585858",
"L  c gray35",
"P  c #5A5A59",
"I  c #5A5A5A",
"U  c #5B5B5B",
"Y  c gray36",
"T  c #5D5D5D",
"R  c gray37",
"E  c #60605F",
"W  c gray38",
"Q  c #626262",
"!  c gray39",
"~  c #646464",
"^  c #656565",
"/  c gray40",
"(  c #676767",
")  c #686868",
"_  c DimGray",
"`  c #6A6A6A",
"'  c #6B6B6A",
"]  c gray42",
"[  c #6C6C6C",
"{  c #6D6D6D",
"}  c #6E6E6D",
"|  c gray43",
" . c #6F6F6F",
".. c gray44",
"X. c #717171",
"o. c gray45",
"O. c #747474",
"+. c #767675",
"@. c #777777",
"#. c gray47",
"$. c #797979",
"%. c #7B7B7B",
"&. c #7C7C7C",
"*. c gray49",
"=. c #7E7E7E",
"-. c #7F7F7E",
";. c gray50",
":. c #808080",
">. c #818180",
",. c #818181",
"<. c #838383",
"1. c #848484",
"2. c #868686",
"3. c gray53",
"4. c #898989",
"5. c #8B8B8B",
"6. c gray55",
"7. c #8D8D8D",
"8. c #8E8E8E",
"9. c gray56",
"0. c #90908F",
"q. c #909090",
"w. c gray57",
"e. c #939392",
"r. c gray59",
"t. c #979797",
"y. c #989898",
"u. c gray60",
"i. c gray61",
"p. c gray62",
"a. c #9F9F9F",
"s. c #A0A0A0",
"d. c gray63",
"f. c #A2A2A2",
"g. c gray64",
"h. c #A4A4A4",
"j. c #A5A5A4",
"k. c #A5A5A5",
"l. c #A6A6A5",
"z. c #A7A7A7",
"x. c gray66",
"c. c #A9A9A8",
"v. c #AAAAAA",
"b. c #ACACAC",
"n. c gray68",
"m. c #AFAFAF",
"M. c gray71",
"N. c gray79",
"B. c #CECECE",
"V. c gray81",
"C. c #D0D0D0",
"Z. c gray82",
"A. c #D2D2D1",
"S. c #D2D2D2",
"D. c #D5D5D5",
"F. c #D7D7D7",
"G. c #D8D8D8",
"H. c gray85",
"J. c #DADADA",
"K. c gray86",
"L. c #DCDCDB",
"P. c gainsboro",
"I. c #DDDDDD",
"U. c #DEDEDD",
"Y. c gray87",
"T. c #DFDFDE",
"R. c #DFDFDF",
"E. c gray88",
"W. c #E1E1E1",
"Q. c gray89",
"!. c #E4E4E4",
"~. c gray90",
"^. c #E6E6E6",
"/. c #E7E7E7",
"(. c gray91",
"). c #E9E9E9",
"_. c #EAEAEA",
"`. c gray93",
"'. c #EFEFEF",
"]. c #F8F8F8",
"[. c #F9F9F9",
"{. c gray98",
"}. c #FBFBFB",
"|. c gray99",
" X c #FDFDFD",
".X c #FEFEFE",
"XX c white",
/* pixels */
"XXXXXXXXXXXXXXXXXXXXXXXXXXXXXXXXXXXXXXXXXXXXXXXXXXXXXXXXXXXXXXXXXXXXXXXXXXXXXXXXXXXXXXXXXXXXXXXXXXXX",
"XXXXXXXXXXXXXXXXXXXXXXXXXXXXXXXXXXXXXXXXXXXXXXXXXXXXXXXXXXXXXXXXXXXXXXXXXXXXXXXXXXXXXXXXXXXXXXXXXXXX",
"XXXXXXXXXXXXXXXXXXXXXXXXXXXXXXXXXXXXXXXXXXXXXXXXXXXXXXXXXXXXXXXXXXXXXXXXXXXXXXXXXXXXXXXXXXXXXXXXXXXX",
"XXXXXXXXXXXXXXXXXXXXXXXXXXXXXXXXXXXXXXXXXXXXXXXXXXXXXXXXXXXXXXXXXXXXXXXXXXXXXXXXXXXXXXXXXXXXXXXXXXXX",
"XXXXXXXXXXXXXXXXXXXXXXXXXXXXXXXXXXXXXXXXXXXXXXXXXXXXXXXXXXXXXXXXXXXXXXXX8.& & & & & & & * p XXXXXXXX",
"XXXXXXXXXXXXXXXXXXXXXXXXXXXXXXXXXXXXXXXXXXXXXXXXXXXXXXXXXXXXXXXXXXXXXXXX1.w b.x.x.x.x.v.` 1 XXXXXXXX",
"XXXXXXXXXXXXXXXXXXXXXXXXXXXXXXXXXXXXXXXXXXXXXXXXXXXXXXXXXXXXXXXXXXXXXXXX1.a XXXXXXXXXXXXf., XXXXXXXX",
"XXXXXXXXXXXXXXXXXXXXXXXXXXXXXXXXXXXXXXXXXXXXXXXXXXXXXXXXXXXXXXXXXXXXXXXX1.a XXXXXXXXXXXXd., XXXXXXXX",
"XXXXXXXXXXXXXXXXXXXXXXXXXXXXXXXXXXXXXXXXXXXXXXXXXXXXXXXXXXXXXXXXXXXXXXXX1.a XXXXXXXXXXXXd., XXXXXXXX",
"XXXXXXXXXXXXXXXXXXXXXXXXXXXXXXXXXXXXXXXXXXXXXXXXXXXXXXXXXXXXXXXXXXXXXXXX1.a XXXXXXXXXXXXd., XXXXXXXX",
"XXXXXXXXXXXXXXXXXXXXXXXXXXXXXXXXXXXXXXXXXXXXXXXXXXXXXXXXXXXXXXXXXXXXXXXX3.a XXXXXXXXXXXXd., XXXXXXXX",
"XXXXXXXXXXXXXXXXXXXXXXXXXXXXXXXXXXXXXXXXXXXXXXXXXXXXXXXXXXXXXXXXXXXXXX_.t f XXXXXXXXXXXXk., XXXXXXXX",
"XXXXXXXXXXXXXXXXXXXXXXXXXXXXXXXXXXXXXXXXXXXXXXXXXXXXXXXXXXXXXXXXXXXX_.e   O u e e e e r : , XXXXXXXX",
"XXXXXXXXXXXXXXXXXXXXXXXXXXXXXXXXXXXXXXXXXXXXXXXXXXXXXXXXXXXXXXXXXX).w       f u.r.r.r.r.r.s.XXXXXXXX",
"XXXXXXXXXXXXXXXXXXXXXXXXXXXXXXXXXXXXXXXXXXXXXXXXXXXXXXXXXXXXXXXX(.q       g ].XXXXXXXXXXXXXXXXXXXXXX",
"XXXXXXXXXXXXXXXXXXXXXXXXXXXXXXXXXXXXXXXXXXXXXXXXXXXXXXXXXXXXXX(.q       h ].XXXXXXXXXXXXXXXXXXXXXXXX",
"XXXXXXXXXXXXXXXXXXXXXXXXXXXXXXXXXXXXXXXXXXXXXXXXXXXXXXXXXXXX/.q       j [.XXXXXXXXXXXXXXXXXXXXXXXXXX",
"XXXXXXXXXXXXXXXXXXXXXXXXXXXXXXXXXXXXXXXXXXXXXXXXXXXXXXXXXX^.0       k [.XXXXXXXXXXXXXXXXXXXXXXXXXXXX",
"XXXXXXXXXXXXXXXXXXXXXXXXXXXXXXXXXXXXXXXXXXXXXXXXXXXXXXXX^.9       l {.XXXXXXXXXXXXXXXXXXXXXXXXXXXXXX",
"XXXXXXXXXXXXXXXXXXXXXXXXXXXXXXXXXXXXXXXXXXXXXXXXXXXXXX~.8       l {.XXXXXXXXXXXXXXXXXXXXXXXXXXXXXXXX",
"XXXXXXXXXXXXXXXXXXXXXXXXXXXXXXXXXXXXXXXXXXXXXXXXXXXX!.8       z {.XXXXXXXXXXXXXXXXXXXXXXXXXXXXXXXXXX",
"XXXXXXXXXXXXXXXXXXXXXXXXXXXXXXXXXXXXXXXXXXXXXXXXXXQ.7       x }.XXXXXXXXXXXXXXXXXXXXXXXXXXXXXXXXXXXX",
"XXXXXXXXXXXXXXXXXXXXXXXXXXXXXXXXXXXXXXXXXXXXXXXXQ.6       c }.XXXXXXXXXXXXXXXXXXXXXXXXXXXXXXXXXXXXXX",
"XXXXXXXXXXXXXXXXXXXXXXXXXXXXXXXXXXXXXXXXXXXXXXQ.6       c }.XXXXXXXXXXXXXXXXXXXXXXXXXXXXXXXXXXXXXXXX",
"XXXXXXXXXXXXXXXXXXXXXXXXXXXXXXXXXXXXXXXXXXXXW.5       v |.XXXXXXXXXXXXXXXXXXXXXXXXXXXXXXXXXXXXXXXXXX",
"XXXXXXXXXXXXXXXXXXXXXXXXXXXXXXXXXXXXXXXXXXW.4       b |.XXXXXXXXXXXXXXXXXXXXXXXXXXXXXXXXXXXXXXXXXXXX",
"XXXXXXXXXXXXXXXXXXXXXXXXXXXXXXXXXXXXXXXXE.4       b  XXXXXXXXXXXXXXXXXXXXXXXXXXXXXXXXXXXXXXXXXXXXXXX",
"XXXXXXXXXXXXXXXXXXXXXXXXXXXXXXXXXXXXXXR.2       n  XXXXXXXXXXXXXXXXXXXXXXXXXXXXXXXXXXXXXXXXXXXXXXXXX",
"XXXXXXXXXXXXXXXXXXXXXXXXXXXXXXXXXXXXY.1       m  XXXXXXXXXXXXXXXXXXXXXXXXXXXXXXXXXXXXXXXXXXXXXXXXXXX",
"XXXXXXXXXXXXXXXXXXXXXXXXXXXXXXXXXXY.1       M .XXXXXXXXXXXXXXXXXXXXXXXXXXXXXXXXXXXXXXXXXXXXXXXXXXXXX",
"XXXXXXXXXXXXXXXXXXXXXXXXXXXXXXXXI.,       N .XXXXXXXXXXXXXXXXXXXXXXXXXXXXXXXXXXXXXXXXXXXXXXXXXXXXXXX",
"XXXXXXXXXXXXXXXXXXXXXXXXXXXXXXP.,       B XXXXXXXXXXXXXXXXXXXXXXXXXXXXXXXXXXXXXXXXXXXXXXXXXXXXXXXXXX",
"XXXXXXXXXXXXXXXXXXXXXXXXXXXXP.:       V .XXXXXXXXXXXXXXXXXXXXXXXXXXXXXXXXXXXXXXXXXXXXXXXXXXXXXXXXXXX",
"XXXXXXXXXXXXXXXXXXXXXXXXXXK.:       C XXXXXXXXXXXXXXXXXXXXXXXXXXXXXXXXXXXXXXXXXXXXXXXXXXXXXXXXXXXXXX",
"XXXXXXXXXXXXXXXXXXXXXXXXJ.-       Z XXXXXXXXXXXXXXXXXXXXXXXXXXXXXXXXXXXXXXXXXXXXXXXXXXXXXXXXXXXXXXXX",
"XXXXXXXXXXXXXXXXXXXXXXH.=       A XXXXXXXXXXXXXXXXXXXXXXXXXXXXXXXXXXXXXXXXXXXXXXXXXXXXXXXXXXXXXXXXXX",
"XXXXXXXX^ H H H H H J *       S XXXXXXXXXXXXXXXXXXXXXXXXXXXXXXXXXXXXXXXXXXXXXXXXXXXXXXXXXXXXXXXXXXXX",
"XXXXXXXX1 c ! Q Q Q Q / 2   D XXXXXXXXXXXXXXXXXXXXXXXXXXXXXXXXXXXXXXXXXXXXXXXXXXXXXXXXXXXXXXXXXXXXXX",
"XXXXXXXX, h.XXXXXXXXXXXXd M XXXXXXXXXXXXXXXXXXXXXXXXXXXXXXXXXXXXXXXXXXXXXXXXXXXXXXXXXXXXXXXXXXXXXXXX",
"XXXXXXXX, d.XXXXXXXXXXXXa 2.XXXXXXXXXXXXXXXXXXXXXXXXXXXXXXXXXXXXXXXXXXXXXXXXXXXXXXXXXXXXXXXXXXXXXXXX",
"XXXXXXXX, d.XXXXXXXXXXXXa 1.XXXXXXXXXXXXXXXXXXXXXXXXXXXXXXXXXXXXXXXXXXXXXXXXXXXXXXXXXXXXXXXXXXXXXXXX",
"XXXXXXXX, d.XXXXXXXXXXXXa 1.XXXXXXXXXXXXXXXXXXXXXXXXXXXXXXXXXXXXXXXXXXXXXXXXXXXXXXXXXXXXXXXXXXXXXXXX",
"XXXXXXXX, d.XXXXXXXXXXXXa 1.XXXXXXXXXXXXXXXXXXXXXXXXXXXXXXXXXXXXXXXXXXXXXXXXXXXXXXXXXXXXXXXXXXXXXXXX",
"XXXXXXXX, g.XXXXXXXXXXXXs 1.XXXXXXXXXXXXXXXXXXXXXXXXXXXXXXXXXXXXXXXXXXXXXXXXXXXXXXXXXXXXXXXXXXXXXXXX",
"XXXXXXXX1 v / ^ ^ ^ ^ ( = 1.XXXXXXXXXXXXXXXXXXXXXXXXXXXXXXXXXXXXXXXXXXXXXXXXXXXXXXXXXXXXXXXXXXXXXXXX",
"XXXXXXXXQ G F F F F F F F n.XXXXXXXXXXXXXXXXXXXXXXXXXXXXXXXXXXXXXXXXXXXXXXXXXXXXXXXXXXXXXXXXXXXXXXXX",
"XXXXXXXXXXXXXXXXXXXXXXXXXXXXXXXXXXXXXXXXXXXXXXXXXXXXXXXXXXXXXXXXXXXXXXXXXXXXXXXXXXXXXXXXXXXXXXXXXXXX",
"XXXXXXXXXXXXXXXXXXXXXXXXXXXXXXXXXXXXXXXXXXXXXXXXXXXXXXXXXXXXXXXXXXXXXXXXXXXXXXXXXXXXXXXXXXXXXXXXXXXX",
"XXXXXXXXXXXXXXXXXXXXXXXXXXXXXXXXXXXXXXXXXXXXXXXXXXXXXXXXXXXXXXXXXXXXXXXXXXXXXXXXXXXXXXXXXXXXXXXXXXXX",
"XXXXXXXXXXXXXXXXXXXXXXXXXXXXXXXXXXXXXXXXXXXXXXXXXXXXXXXXXXXXXXXXXXXXXXXXXXXXXXXXXXXXXXXXXXXXXXXXXX|.",
"XXXXXXXXXXXXXXXXXXXXXXXXXXXXXXXXXXXXXXXXXXXXXXXXXXXXXXXXXXXXXXXXXXXXXXXXXXXXXXXXXXXXXXXXXXXXXXXXXXXX",
"F.G.G.G.G.G.G.G.G.G.G.G.G.G.G.G.G.G.G.G.G.G.G.G.G.G.G.G.G.G.G.G.G.G.G.G.G.G.G.G.G.G.G.G.G.G.G.G.G.F.",
"XXXXXXXXXXXXXXXXXXXXXXXXXXXXXXXXXXXXXXXXXXXXXXXXXXXXXXXXXXXXXXXXXXXXXXXXXXXXXXXXXXXXXXXXXXXXXXXXXXXX",
"XXXXXXXXXXXXXXXXXXXXXXXXXXXXXXXXXXXXXXXXXXXXXXXXXXXXXXXXXXXXXXXXXXXXXXXXXXXXXXXXXXXXXXXXXXXXXXXXXXXX",
"XXXXXXXXXXXXXXXXXXXXXXXXXXXXXXXXXXXXXXXXXXXXXXXXXXXXXXXXXXXXXXXXXXXXXXXXXXXXXXXXXXXXXXXXXXXXXXXXXXXX",
"XXXXXXXXXXXXXXXXXXXXXXXXXXXXXXXXXXXXXXXXXXXXXXXXXXXXXXXXXX_.y.=.i.'.XXXXXXXXXXXXXXXXXXXXXXXXXXXXXXXX",
"XXXXXXXXXXXXXXXXXXXXXXXXXXXXXXXXXXXXXXXXXXXXXXXXXXXXXXXX0.        o a.XXXXXXXXXXXXXXXXXXXXXXXXXXXXXX",
"XXXXXXXXXXXXXXXXXXXXXXXXXXXXXXXXXXXXXXXXXXXXXXXXXXXXXX:.  X   X   .   e.XXXXXXXXXXXXXXXXXXXXXXXXXXXX",
"XXXXXXXXXXXXXXXXXXXXXXXXXXXXXXXXXXXXXXXXXXXXXXXXXXXX-.  X   X   X   X   w.XXXXXXXXXXXXXXXXXXXXXXXXXX",
"XXXXXXXXXXXXXXXXXXXXXXXXXXXXXXXXXXXXXXXXXXXXXXXXXX*.  X   X   X   X   X   q.XXXXXXXXXXXXXXXXXXXXXXXX",
"XXXXXXXXXXXXXXXXXXXXXXXXXXXXXXXXXXXXXXXXXXXXXXXX&.  X   X   X   X   X   X   9.XXXXXXXXXXXXXXXXXXXXXX",
"XXXXXXXXXXXXXXXXXXXXXXXXXXXXXXXXXXXXXXXXXXXXXX%.  X   X   X   X   X   X . .   7.XXXXXXXXXXXXXXXXXXXX",
"XXXXXXXXXXXXXXXXXXXXXXXXXXXXXXXXXXXXXXXXXXXX$.  X   X   X   X   X   X . . X     5.XXXXXXXXXXXXXXXXXX",
"XXXXXXXXXXXXXXXXXXXXXXXXXXXXXXXXXXXXXXXXXX#.  X   X   X   X   X   X . . X   X     5.XXXXXXXXXXXXXXXX",
"XXXXXXXXXXXXXXXXXXXXXXXXXXXXXXXXXXXXXXXX@.  X   X   X   X   X   X . . X   X   X     m.XXXXXXXXXXXXXX",
"XXXXXXXXXXXXXXXXXXXXXXXXXXXXXXXXXXXXXX+.  X   X   X   X   X   X . . X   X   X   X   i XXXXXXXXXXXXXX",
"XXXXXXXXXXXXXXXXXXXXXXXXXXXXXXXXXXXXO.  X   X   X   X   X   X . . X   X   X   X   X   `.XXXXXXXXXXXX",
"XXXXXXXXXXXXXXXXXXXXXXXXXXXXXXXXXXo.  X   X   X   X   X   X . . X   X   X   X   X     /.XXXXXXXXXXXX",
"XXXXXXXXXXXXXXXXXXXXXXXXXXXXXXXXX.  *   X   X   X   X . X . . X   X   X   X   X     4 XXXXXXXXXXXXXX",
"XXXXXXXXXXXXXXXXXXXXXXXXXXXXXX..  - P.d.  X   X   X   X . . X   X   X   X   X   X   8.XXXXXXXXXXXXXX",
"XXXXXXXXXXXXXXXXXXXXXXXXXXXX .  ; H.XXXXs.  X   X   X X . X   X   X   X   X   X   I XXXXXXXXXXXXXXXX",
"XXXXXXXXXXXXXXXXXXXXXXXXXX{   : J.XXXXXXXXd.  . . X X   X   X   X   X   X   X   U XXXXXXXXXXXXXXXXXX",
"XXXXXXXXXXXXXXXXXXXXXXXX[   , K.XXXXXXXXXXXXf.    X . X   X   X   X   X   X   Y XXXXXXXXXXXXXXXXXXXX",
"XXXXXXXXXXXXXXXXXXXXXX'   < P.XXXXXXXXXXXXXXXXh.    X   X   X   X   X   X   T XXXXXXXXXXXXXXXXXXXXXX",
"XXXXXXXXXXXXXXXXXXXX_   1 I.XXXXXXXXXXXXXXXXXXXXj.    X   X   X   X   X   R XXXXXXXXXXXXXXXXXXXXXXXX",
"XXXXXXXXXXXXXXXXXX)   1 I.XXXXXXXXXXXXXXXXXXXXXXXXl.    X   X   X   X   E XXXXXXXXXXXXXXXXXXXXXXXXXX",
"XXXXXXXXXXXXXXXX(   2 Y.XXXXXXXXXXXXXXXXXXXXXXXXXXXXz.    X   X   X   W XXXXXXXXXXXXXXXXXXXXXXXXXXXX",
"XXXXXXXXXXXXXXt.  4 R.XXXXXXXXXXXXXXXXXXXXXXXXXXXXXXXXx.    X   X   Q XXXXXXXXXXXXXXXXXXXXXXXXXXXXXX",
"XXXXXXXXXXXXXX8   D.XXXXXXXXXXXXXXXXXXXXXXXXXXXXXXXXXXXXc.    X   ! XXXXXXXXXXXXXXXXXXXXXXXXXXXXXXXX",
"XXXXXXXXXXXX(.  f XXXXXXXXXXXXXXXXXXXXXXXXXXXXXXXXXXXXXXXX0.    ~ XXXXXXXXXXXXXXXXXXXXXXXXXXXXXXXXXX",
"XXXXXXXXXXXX_.  s XXXXXXXXXXXXXXXXXXXXXXXXXXXXXXXXXXXXXXR.6   / XXXXXXXXXXXXXXXXXXXXXXXXXXXXXXXXXXXX",
"XXXXXXXXXXXXXXy   N.XXXXXXXXXXXXXXXXXXXXXXXXXXXXXXXXXXR.3   ( XXXXXXXXXXXXXXXXXXXXXXXXXXXXXXXXXXXXXX",
"XXXXXXXXXXXXXXk.  % S.XXXXXXXXXXXXXXXXXXXXXXXXXXXXXXU.2   ) XXXXXXXXXXXXXXXXXXXXXXXXXXXXXXXXXXXXXXXX",
"XXXXXXXXXXXXXXXX&.  $ A.XXXXXXXXXXXXXXXXXXXXXXXXXXI.1   _ XXXXXXXXXXXXXXXXXXXXXXXXXXXXXXXXXXXXXXXXXX",
"XXXXXXXXXXXXXXXXXX&.  # Z.XXXXXXXXXXXXXXXXXXXXXXP.1   ] XXXXXXXXXXXXXXXXXXXXXXXXXXXXXXXXXXXXXXXXXXXX",
"XXXXXXXXXXXXXXXXXXXX=.  @ C.XXXXXXXXXXXXXXXXXXP.,   [ XXXXXXXXXXXXXXXXXXXXXXXXXXXXXXXXXXXXXXXXXXXXXX",
"XXXXXXXXXXXXXXXXXXXXXX;.  @ V.XXXXXXXXXXXXXXJ.>   } XXXXXXXXXXXXXXXXXXXXXXXXXXXXXXXXXXXXXXXXXXXXXXXX",
"XXXXXXXXXXXXXXXXXXXXXXXX:.  @ B.XXXXXXXXXXJ.:   | XXXXXXXXXXXXXXXXXXXXXXXXXXXXXXXXXXXXXXXXXXXXXXXXXX",
"XXXXXXXXXXXXXXXXXXXXXXXXXX,.  + B.XXXXXXH.;   ..XXXXXXXXXXXXXXXXXXXXXXXXXXXXXXXXXXXXXXXXXXXXXXXXXXXX",
"XXXXXXXXXXXXXXXXXXXXXXXXXXXX<.  O ;.M.2.%   X.XXXXXXXXXXXXXXXXXXXXXXXXXXXXXXXXXXXXXXXXXXXXXXXXXXXXXX",
"XXXXXXXXXXXXXXXXXXXXXXXXXXXXXX9.          >.XXXXXXXXXXXXXXXXXXXXXXXXXXXXXXXXXXXXXXXXXXXXXXXXXXXXXXXX",
"XXXXXXXXXXXXXXXXXXXXXXXXXXXXXXXX~.6. .4.Y.XXXXXXXXXXXXXXXXXXXXXXXXXXXXXXXXXXXXXXXXXXXXXXXXXXXXXXXXXX",
"XXXXXXXXXXXXXXXXXXXXXXXXXXXXXXXXXXXXXXXXXXXXXXXXXXXXXXXXXXXXXXXXXXXXXXXXXXXXXXXXXXXXXXXXXXXXXXXXXXXX",
"XXXXXXXXXXXXXXXXXXXXXXXXXXXXXXXXXXXXXXXXXXXXXXXXXXXXXXXXXXXXXXXXXXXXXXXXXXXXXXXXXXXXXXXXXXXXXXXXXXXX",
"XXXXXXE.K.L.K.L.K.L.K.L.K.K.K.K.K.K.K.K.K.K.K.K.K.K.K.K.K.K.L.K.K.K.L.K.K.K.K.K.K.K.K.K.K.K.E.XXXXXX",
"XXXXp.                                                                                        p.XXXX",
"XXXX=.                                                                                        ;.XXXX",
"XXXXT.Y L L L L L L P L I L I L I K I K I K I K I L I L I L I L I L I L P L L L L L L L L L Y Y.XXXX",
"XXXXXXXXXXXXXXXXXXXXXXXXXXXXXXXXXXXXXXXXXXXXXXXXXXXXXXXXXXXXXXXXXXXXXXXXXXXXXXXXXXXXXXXXXXXXXXXXXXXX",
"XXXXXXXXXXXXXXXXXXXXXXXXXXXXXXXXXXXXXXXXXXXXXXXXXXXXXXXXXXXXXXXXXXXXXXXXXXXXXXXXXXXXXXXXXXXXXXXXXXXX",
"XXXXXXXXXXXXXXXXXXXXXXXXXXXXXXXXXXXXXXXXXXXXXXXXXXXXXXXXXXXXXXXXXXXXXXXXXXXXXXXXXXXXXXXXXXXXXXXXXXXX",
"XXXXXXXXXXXXXXXXXXXXXXXXXXXXXXXXXXXXXXXXXXXXXXXXXXXXXXXXXXXXXXXXXXXXXXXXXXXXXXXXXXXXXXXXXXXXXXXXXXXX",
"XXXXXXXXXXXXXXXXXXXXXXXXXXXXXXXXXXXXXXXXXXXXXXXXXXXXXXXXXXXXXXXXXXXXXXXXXXXXXXXXXXXXXXXXXXXXXXXXXXXX"
};
